<?xml version="1.0" standalone="no"?>
<!DOCTYPE svg PUBLIC "-//W3C//DTD SVG 20010904//EN"
 "http://www.w3.org/TR/2001/REC-SVG-20010904/DTD/svg10.dtd">
<svg version="1.0" xmlns="http://www.w3.org/2000/svg"
 width="205.000000pt" height="230.000000pt" viewBox="0 0 205.000000 230.000000"
 preserveAspectRatio="xMidYMid meet">

<g transform="translate(0.000000,230.000000) scale(0.100000,-0.100000)"
fill="#000000" stroke="none">
<path d="M392 2048 c-59 -16 -89 -98 -59 -158 7 -14 28 -33 46 -42 20 -10 36
-26 38 -38 4 -27 -13 -60 -31 -60 -27 0 -66 -59 -66 -100 0 -41 35 -94 69
-105 11 -3 21 -18 23 -36 4 -25 0 -33 -23 -44 -92 -48 -91 -162 2 -211 24 -12
29 -20 25 -42 -2 -15 -5 -30 -5 -34 -1 -5 -8 -8 -17 -8 -8 0 -29 -13 -45 -29
-52 -52 -32 -148 37 -177 72 -30 154 23 154 99 0 18 8 28 33 38 17 7 112 47
209 90 241 105 229 105 501 -14 190 -84 207 -94 207 -117 0 -71 76 -123 146
-100 100 33 96 181 -6 211 -36 11 -40 15 -36 38 2 14 5 29 5 34 1 4 10 7 22 7
12 0 36 15 55 34 27 27 34 42 34 74 0 49 -37 98 -83 110 -27 7 -32 13 -32 37
0 24 5 30 32 37 17 4 43 22 57 39 51 61 24 148 -55 174 -27 9 -35 18 -37 42
-3 27 1 31 38 42 92 27 108 157 25 201 -31 16 -90 17 -109 1 -8 -6 -112 -56
-232 -110 -219 -98 -219 -98 -243 -80 -32 25 -89 24 -116 -1 l-22 -20 -230
109 c-127 59 -242 111 -255 114 -12 2 -38 1 -56 -5z m27 -95 c2 -102 -7 -116
-48 -75 -44 43 -44 99 0 136 17 14 34 24 38 21 5 -2 9 -39 10 -82z m79 51 c32
-37 30 -88 -7 -125 -52 -52 -61 -42 -61 67 0 94 0 95 23 89 12 -4 32 -18 45
-31z m1170 0 c32 -37 30 -88 -7 -125 -16 -16 -38 -29 -49 -29 -17 0 -19 8 -21
85 -1 47 1 90 4 96 10 15 47 1 73 -27z m-88 -64 c0 -87 -1 -90 -19 -80 -52 27
-66 98 -30 144 39 49 49 35 49 -64z m-847 -30 c170 -80 197 -97 195 -114 -3
-17 -19 -24 -98 -42 l-94 -22 -103 75 -102 75 5 43 c4 25 1 51 -6 65 -7 12 -8
20 -3 18 4 -3 97 -47 206 -98z m762 30 l0 -60 -102 -73 -102 -74 -92 21 c-73
17 -94 26 -100 42 -7 20 9 29 194 112 111 50 202 92 202 92 0 0 0 -27 0 -60z
m-871 -142 c46 -35 82 -66 80 -69 -2 -4 -15 -9 -28 -11 -20 -4 -38 8 -95 66
-110 111 -94 116 43 14z m896 64 c0 -4 -32 -39 -70 -77 -58 -58 -75 -69 -98
-66 -15 1 -31 5 -35 8 -8 5 180 143 195 143 4 0 8 -3 8 -8z m-463 -24 c27 -26
30 -73 6 -100 -25 -28 -77 -24 -102 8 -27 35 -26 59 4 89 30 31 62 32 92 3z
m-493 -57 c37 -38 64 -71 60 -74 -5 -2 -27 -8 -50 -11 -36 -6 -43 -4 -57 18
-9 13 -32 30 -52 37 -30 11 -35 18 -35 44 0 29 19 46 60 54 3 1 36 -30 74 -68z
m1007 59 c5 0 9 -18 9 -39 0 -31 -5 -41 -20 -46 -10 -3 -31 -20 -45 -36 -23
-28 -29 -30 -65 -24 -22 4 -42 10 -44 14 -8 12 126 142 141 136 8 -3 19 -5 24
-5z m-637 -89 c3 -5 -19 -27 -49 -50 l-55 -42 -35 27 c-19 14 -35 30 -35 34 0
4 30 14 68 22 83 19 99 20 106 9z m256 -8 c41 -9 77 -18 79 -20 5 -4 -24 -26
-56 -44 -19 -10 -28 -7 -72 26 -80 58 -71 65 49 38z m-775 -93 c1 -99 -7 -109
-50 -65 -19 18 -25 35 -25 65 0 30 6 47 25 65 43 44 50 34 50 -65z m79 64 c35
-36 36 -95 1 -129 -13 -14 -33 -25 -45 -25 -19 0 -20 6 -20 90 0 81 2 90 19
90 10 0 30 -12 45 -26z m1086 -64 c0 -56 -4 -90 -10 -90 -6 0 -22 11 -35 25
-19 18 -25 35 -25 65 0 30 6 47 25 65 13 14 29 25 35 25 6 0 10 -34 10 -90z
m85 64 c50 -54 18 -154 -48 -154 -24 0 -24 2 -25 90 -1 90 -1 90 24 90 14 0
36 -11 49 -26z m-746 -38 c-36 -48 -47 -54 -67 -34 -8 8 1 20 40 50 28 21 54
36 56 33 3 -2 -10 -25 -29 -49z m202 28 c19 -14 41 -29 49 -34 13 -8 13 -11
-3 -27 -17 -17 -19 -16 -57 27 -57 65 -52 81 11 34z m-345 -18 l45 -34 -30
-21 c-38 -27 -41 -27 -78 13 -41 43 -44 57 -13 67 14 4 26 7 28 8 2 1 23 -14
48 -33z m576 15 c7 -6 -68 -91 -80 -91 -4 0 -20 10 -36 23 l-29 23 43 32 c41
30 78 35 102 13z m-254 -32 c36 -41 39 -54 16 -63 -9 -3 -24 4 -37 19 -12 14
-37 28 -54 31 -28 6 -38 1 -67 -28 -29 -29 -37 -32 -51 -22 -16 12 -14 17 18
56 34 41 38 43 89 43 50 0 57 -3 86 -36z m-403 -19 c27 -27 46 -53 42 -57 -4
-4 -50 4 -103 16 -85 21 -95 25 -92 44 3 19 38 35 98 46 3 1 28 -21 55 -49z
m765 30 c15 -4 26 -15 28 -27 3 -19 -7 -24 -93 -43 -53 -13 -99 -20 -102 -16
-4 4 15 29 42 56 51 52 46 51 125 30z m-204 -81 c8 -14 -6 -27 -35 -31 -16 -2
-30 5 -44 24 -21 28 -21 28 -2 42 17 12 23 12 47 -5 15 -11 30 -25 34 -30z
m-403 29 c14 -12 14 -15 -7 -41 -21 -26 -25 -27 -52 -16 -16 7 -33 11 -39 10
-12 -3 -3 6 39 37 33 26 37 26 59 10z m207 -8 c11 -11 20 -33 20 -50 0 -65
-79 -94 -119 -44 -27 35 -26 59 4 89 29 30 68 32 95 5z m-397 -31 c40 -9 46
-13 36 -25 -29 -35 -47 -35 -109 -4 -33 17 -60 34 -60 38 0 17 12 19 48 11 20
-5 59 -14 85 -20z m835 13 c2 -6 -24 -25 -58 -42 -62 -31 -80 -31 -109 3 -10
12 1 18 66 35 84 21 95 22 101 4z m-568 -50 c0 -11 -8 -13 -37 -7 -54 10 -57
14 -32 41 l23 24 23 -22 c13 -12 23 -28 23 -36z m234 36 c18 -26 13 -33 -31
-43 -27 -5 -33 -4 -33 11 0 18 27 54 41 54 4 0 15 -10 23 -22z m-589 -35 c30
-15 55 -30 55 -34 0 -4 -25 -25 -55 -48 l-56 -42 -26 20 c-14 12 -34 21 -44
21 -15 0 -19 8 -19 35 0 28 4 35 19 35 10 0 29 9 42 20 13 10 25 19 26 20 2 0
27 -12 58 -27z m972 2 c47 -29 45 -72 -4 -103 l-35 -23 -54 41 c-30 22 -54 44
-54 48 0 8 102 62 110 59 3 -2 20 -11 37 -22z m-767 -3 l22 -18 -25 -29 -25
-29 -41 18 c-22 11 -41 22 -41 27 0 12 53 48 71 49 9 0 27 -8 39 -18z m554 -6
l28 -24 -43 -25 -44 -26 -22 27 c-28 35 -29 50 0 62 34 14 50 11 81 -14z
m-436 -16 c52 -13 54 -26 6 -35 -29 -5 -41 -2 -60 16 -23 22 -24 42 -1 34 7
-2 31 -9 55 -15z m286 -21 c-28 -27 -31 -28 -72 -17 -27 7 -40 14 -34 20 12
12 114 36 126 30 4 -2 -5 -17 -20 -33z m-350 -8 c17 -19 17 -20 -20 -30 -21
-6 -40 -9 -42 -7 -5 6 29 56 38 56 4 0 15 -9 24 -19z m426 -34 c0 -9 -79 -2
-89 8 -2 3 7 13 20 24 24 19 24 19 47 -1 12 -12 22 -26 22 -31z m-560 21 c22
-13 39 -27 37 -32 -2 -5 -47 -21 -101 -36 -82 -23 -98 -25 -103 -13 -3 8 3 20
13 28 11 7 37 27 59 44 22 17 44 31 48 31 4 0 26 -10 47 -22z m739 -20 c62
-44 76 -76 32 -70 -50 7 -175 47 -178 57 -3 10 62 54 79 55 4 0 35 -19 67 -42z
m-479 25 c0 -5 -12 -16 -26 -26 -21 -16 -28 -16 -41 -6 -13 12 -11 15 18 25
41 15 49 16 49 7z m108 -40 c23 -17 30 -29 24 -35 -7 -7 -18 -5 -33 6 -29 20
-56 20 -91 2 -41 -22 -55 1 -22 35 32 33 70 31 122 -8z m46 24 c25 -11 27 -14
13 -26 -14 -11 -21 -9 -47 9 -16 12 -30 23 -30 26 0 8 35 3 64 -9z m-234 -22
c21 -26 -2 -41 -39 -25 -35 14 -40 26 -13 33 31 8 39 7 52 -8z m-375 -38 c24
-35 19 -90 -11 -121 -15 -14 -35 -26 -45 -26 -17 0 -19 9 -19 94 l0 95 30 -11
c17 -5 37 -20 45 -31z m703 35 c8 -6 1 -14 -24 -26 -42 -19 -67 -9 -44 19 13
16 47 20 68 7z m467 -35 c37 -53 -3 -153 -58 -145 -20 3 -22 9 -25 71 -2 38
-1 80 2 92 6 22 9 23 36 13 17 -5 37 -20 45 -31z m-1260 -57 c0 -94 -10 -106
-50 -66 -19 19 -25 36 -25 66 0 30 6 47 25 66 40 40 50 28 50 -66z m390 4
c-39 -34 -58 -44 -87 -44 -69 0 -72 7 -25 62 54 64 71 71 122 45 l39 -20 -49
-43z m775 -4 c0 -56 -4 -90 -10 -90 -6 0 -22 12 -35 26 -34 37 -34 96 0 129
13 14 29 25 35 25 6 0 10 -34 10 -90z m-294 72 c7 -4 28 -27 48 -51 42 -50 37
-61 -28 -61 -28 0 -51 9 -87 36 -27 20 -49 39 -49 43 0 11 61 40 85 40 11 0
25 -3 31 -7z m-612 -56 c-31 -37 -44 -46 -70 -46 -45 0 -64 9 -64 30 0 14 14
23 58 35 31 9 68 20 82 24 14 5 27 7 29 5 1 -1 -14 -23 -35 -48z m260 12 c-3
-5 -13 -3 -22 4 -10 7 -19 13 -21 15 -1 1 0 7 4 13 5 8 13 6 26 -6 10 -9 16
-21 13 -26z m124 16 c32 -22 30 -76 -4 -103 -35 -27 -59 -26 -89 4 -30 30 -31
54 -4 89 24 30 63 34 97 10z m57 -10 c-23 -17 -32 -10 -15 11 7 8 17 12 23 8
6 -4 3 -11 -8 -19z m255 17 c19 -6 54 -15 78 -21 74 -19 47 -68 -33 -58 -18 2
-40 18 -63 46 -37 45 -36 47 18 33z m-471 -26 c21 -10 30 -23 33 -48 l4 -34
-76 5 c-41 2 -77 7 -80 9 -4 4 79 82 88 83 2 0 16 -7 31 -15z m297 -27 c24
-18 44 -36 44 -40 0 -5 -24 -8 -52 -8 -29 0 -63 -3 -75 -6 -21 -6 -23 -4 -17
27 6 33 27 59 47 59 6 0 29 -15 53 -32z m-576 -44 c0 -3 -28 -39 -61 -80 -55
-66 -64 -73 -88 -67 -39 9 -41 11 -41 48 0 29 4 34 30 40 16 4 40 19 52 35 19
23 31 29 66 29 23 1 42 -2 42 -5z m103 -14 c-4 -5 -50 -42 -101 -84 -135 -109
-148 -101 -43 26 l60 73 46 -3 c26 -2 43 -8 38 -12z m731 -65 c104 -125 90
-128 -61 -12 l-108 82 50 5 c28 3 51 5 51 5 1 0 32 -36 68 -80z m58 59 c12
-14 31 -30 44 -34 20 -8 24 -17 24 -50 0 -22 -4 -40 -9 -40 -5 0 -16 -2 -23
-5 -9 -4 -37 21 -76 69 -34 41 -62 77 -62 80 0 3 18 6 41 6 32 0 45 -6 61 -26z
m-583 -3 c20 -1 31 -5 25 -9 -10 -9 -408 -182 -419 -182 -24 0 15 42 108 118
l108 88 72 -8 c40 -4 88 -7 106 -7z m459 -80 c96 -72 133 -111 105 -111 -10 0
-396 172 -407 181 -4 4 27 10 70 14 44 3 84 8 89 9 14 4 15 3 143 -93z m-972
-147 c0 -47 -3 -87 -8 -90 -4 -3 -22 8 -38 25 -43 42 -42 99 1 136 17 14 34
23 38 20 3 -4 6 -45 7 -91z m75 67 c51 -51 30 -136 -38 -156 -23 -6 -23 -5
-23 89 0 109 9 119 61 67z m1087 -113 l-3 -53 -32 32 c-25 24 -33 40 -33 68 0
28 8 44 33 68 l32 32 3 -47 c2 -26 2 -71 0 -100z m81 116 c43 -36 44 -93 1
-136 -50 -50 -65 -37 -66 62 -1 47 0 88 3 93 8 14 32 7 62 -19z"/>
<path d="M70 810 c0 -7 325 -10 955 -10 630 0 955 3 955 10 0 7 -325 10 -955
10 -630 0 -955 -3 -955 -10z"/>
<path d="M162 635 c-45 -69 -82 -130 -82 -134 0 -19 34 -22 44 -4 5 9 20 28
33 41 21 21 31 23 118 21 l95 -2 31 -38 c18 -24 35 -36 44 -32 8 3 15 10 15
15 0 5 -39 65 -87 134 -63 90 -92 124 -107 124 -16 0 -42 -32 -104 -125z m163
-7 l16 -28 -70 0 c-39 0 -71 2 -71 5 0 3 14 28 31 56 l32 51 23 -29 c12 -15
30 -40 39 -55z"/>
<path d="M487 753 c-4 -3 -7 -61 -7 -128 0 -98 3 -125 15 -135 30 -25 38 3 37
127 0 65 -1 124 -1 131 -1 13 -33 17 -44 5z"/>
<path d="M574 747 c-2 -7 -3 -69 -2 -138 3 -116 4 -124 23 -124 18 0 20 8 25
95 l5 94 69 -84 c76 -92 94 -110 112 -110 6 0 47 43 90 96 l79 95 3 -84 c2
-61 7 -89 18 -98 28 -23 35 4 32 137 -3 120 -4 129 -22 129 -13 0 -52 -38
-108 -105 -49 -58 -92 -105 -97 -105 -4 0 -43 43 -86 95 -43 52 -85 101 -93
108 -20 16 -41 15 -48 -1z"/>
<path d="M1725 748 c-3 -8 -4 -70 -3 -139 3 -116 4 -124 23 -124 16 0 21 8 23
38 2 20 5 37 7 37 3 0 43 -19 90 -42 63 -31 88 -39 96 -31 17 17 8 25 -70 63
-39 19 -71 38 -71 43 0 4 34 24 75 44 71 35 96 63 57 63 -9 0 -51 -18 -92 -40
-41 -22 -78 -40 -82 -40 -4 0 -8 30 -10 67 -2 55 -6 68 -21 71 -9 2 -19 -3
-22 -10z"/>
<path d="M1110 689 c-35 -14 -40 -26 -40 -101 0 -91 11 -98 145 -98 134 0 145
7 145 99 0 95 -13 105 -134 108 -50 2 -102 -2 -116 -8z m184 -35 c12 -5 16
-20 16 -64 0 -51 -2 -58 -22 -64 -35 -9 -124 -7 -152 4 -23 8 -26 15 -26 59 0
37 5 53 18 60 19 11 141 15 166 5z"/>
<path d="M1434 686 c-39 -17 -44 -31 -44 -121 0 -57 3 -74 16 -79 28 -11 34 3
34 78 0 43 5 77 12 84 17 17 162 16 176 -1 6 -7 12 -46 14 -87 3 -67 5 -75 23
-75 18 0 20 8 23 70 4 95 -2 114 -43 131 -43 18 -170 18 -211 0z"/>
<path d="M65 390 c9 -14 1915 -14 1915 0 0 7 -327 10 -961 10 -637 0 -958 -3
-954 -10z"/>
<path d="M897 313 c-4 -3 -7 -19 -7 -34 0 -38 45 -53 67 -23 13 18 15 18 24 2
13 -24 45 -23 61 1 14 19 14 19 26 0 15 -24 50 -22 66 4 24 38 -43 79 -71 41
-11 -16 -13 -16 -19 -1 -8 21 -47 22 -65 1 -11 -14 -13 -14 -21 0 -9 16 -49
22 -61 9z m47 -21 c8 -13 -11 -35 -23 -28 -16 10 -14 36 3 36 8 0 17 -4 20 -8z
m86 -6 c0 -8 -5 -18 -11 -22 -14 -8 -33 11 -25 25 10 16 36 13 36 -3z m86 3
c10 -17 -13 -36 -27 -22 -12 12 -4 33 11 33 5 0 12 -5 16 -11z"/>
</g>
</svg>
